# xmcd
#
# Track frame offsets: 
#        150
#        29298
#        40879
#        51687
#        66152
#        89682
#        100529
#        113055
#        130389
#
# Disc length: 1944 seconds
#
# Revision: 0
# Processed by: cddbd v1.5.2PL0 Copyright (c) Steve Scherf et al.
# Submitted via: ExactAudioCopy v1.0b1
#
DISCID=7d079609
DTITLE=Jimi Hendrix  - Hush Now - 1965-1967 - ASTAN 201021 (Vinyl LP) 
DTITLE=(CYG003)  
DYEAR=1900
DGENRE=
TTITLE0=Hush Now
TTITLE1=No Business
TTITLE2=Ufo
TTITLE3=Simon Says
TTITLE4=Love, Love
TTITLE5=My Heart Is Higher
TTITLE6=Day Tripper
TTITLE7=Level
TTITLE8=Gloomy Monday
EXTD=
EXTT0=
EXTT1=
EXTT2=
EXTT3=
EXTT4=
EXTT5=
EXTT6=
EXTT7=
EXTT8=
PLAYORDER=
